<svg width="100" height="100" viewBox="0 0 100 100" fill="none" xmlns="http://www.w3.org/2000/svg">
<g id="language-javascript-svgrepo-com 1" clip-path="url(#clip0_34_13)">
<path id="Vector" d="M12.5 12.5H87.5V87.5H12.5V12.5ZM32.2083 75C33.114 77.0193 34.6097 78.717 36.4988 79.8698C38.3879 81.0226 40.5818 81.5764 42.7917 81.4583C44.2208 81.6115 45.666 81.4412 47.0204 80.9602C48.3748 80.4791 49.6037 79.6996 50.616 78.6793C51.6283 77.659 52.3981 76.424 52.8685 75.0659C53.3389 73.7077 53.4977 72.2612 53.3333 70.8333V46.9167H46.25V70.8333C46.25 74.4167 44.7917 75.3333 42.5 75.3333C40.2083 75.3333 39.0833 73.6667 37.9583 71.7083L32.2083 75ZM57.2083 74.25C58.4316 76.5644 60.2976 78.476 62.5817 79.7548C64.8659 81.0336 67.4709 81.6252 70.0833 81.4583C76.75 81.4583 81.75 78 81.75 71.625C81.75 65.25 78.375 63.2917 72.375 60.5417L70.625 59.7917C67.5833 58.5 66.4583 57.625 66.4583 55.625C66.4622 55.1978 66.5548 54.7762 66.7302 54.3867C66.9056 53.9972 67.16 53.6484 67.4773 53.3624C67.7947 53.0764 68.1679 52.8595 68.5735 52.7254C68.9791 52.5913 69.4081 52.5429 69.8333 52.5833C70.8089 52.5727 71.7648 52.8576 72.5754 53.4005C73.3861 53.9434 74.0134 54.7189 74.375 55.625L79.8333 52C78.8884 50.2019 77.4383 48.7193 75.6615 47.7346C73.8848 46.75 71.859 46.3064 69.8333 46.4583C68.5324 46.331 67.2191 46.476 65.9773 46.884C64.7354 47.292 63.592 47.9541 62.62 48.8281C61.648 49.7021 60.8686 50.7689 60.3315 51.9607C59.7943 53.1524 59.5111 54.4429 59.5 55.75C59.5 61.5 62.875 64.0833 67.8333 66.375L69.5833 67.125C72.8333 68.5417 74.75 69.4167 74.75 71.8333C74.75 74.25 72.875 75.2917 69.9583 75.2917C68.524 75.3221 67.1101 74.9473 65.8792 74.2102C64.6483 73.4732 63.6504 72.4038 63 71.125L57.2083 74.25Z" fill="black"/>
</g>
<defs>
<clipPath id="clip0_34_13">
<rect width="100" height="100" fill="white"/>
</clipPath>
</defs>
</svg>
