<svg width="100" height="100" viewBox="0 0 100 100" fill="none" xmlns="http://www.w3.org/2000/svg">
<g id="react-svgrepo-com 1" clip-path="url(#clip0_34_7)">
<path id="Vector" d="M50 42.125C51.5375 42.1251 53.0406 42.58 54.32 43.4326C55.5995 44.2851 56.5982 45.4971 57.1903 46.916C57.7824 48.3349 57.9414 49.8972 57.6475 51.4063C57.3535 52.9155 56.6197 54.3039 55.5383 55.3968C54.457 56.4897 53.0764 57.2383 51.5705 57.5483C50.0646 57.8583 48.5007 57.7158 47.0756 57.1389C45.6504 56.5619 44.4279 55.5762 43.5618 54.3059C42.6957 53.0355 42.2248 51.5374 42.2083 50C42.2029 48.9713 42.4 47.9516 42.7886 46.9991C43.1772 46.0466 43.7496 45.18 44.4732 44.4487C45.1967 43.7175 46.0572 43.1359 47.0055 42.7372C47.9538 42.3385 48.9713 42.1304 50 42.125ZM30.7083 83.3333C33.3333 84.9166 39.0417 82.5 45.7083 76.25C43.4801 73.7179 41.3803 71.0757 39.4167 68.3333C36.0559 67.9569 32.7178 67.4006 29.4167 66.6667C27.2917 75.5833 28.0833 81.7083 30.7083 83.3333ZM33.6667 59.4167L32.4583 57.2917C31.9873 58.462 31.5839 59.6584 31.25 60.875C32.375 61.125 33.625 61.3333 34.9167 61.5417L33.6667 59.4167ZM60.9167 56.25L64.2917 50L60.9167 43.75C59.6667 41.5417 58.3333 39.5833 57.125 37.625C54.875 37.5 52.5 37.5 50 37.5C47.5 37.5 45.125 37.5 42.875 37.5C41.6667 39.4583 40.3333 41.4167 39.0833 43.625L35.7083 50L39.0833 56.25C40.3333 58.4583 41.6667 60.4167 42.875 62.375C45.125 62.375 47.5 62.375 50 62.375C52.5 62.375 54.875 62.375 57.125 62.375C58.3333 60.4167 59.6667 58.4583 60.9167 56.25ZM50 28.25C49.2083 29.1667 48.375 30.125 47.5417 31.25H52.4583C51.625 30.125 50.7917 29.1667 50 28.25ZM50 71.75C50.7917 70.8333 51.625 69.875 52.4583 68.75H47.5417C48.375 69.875 49.2083 70.8333 50 71.75ZM69.25 16.6667C66.6667 15.0833 60.9167 17.5 54.2917 23.75C56.5199 26.2821 58.6197 28.9243 60.5833 31.6667C63.941 31.988 67.2791 32.4887 70.5833 33.1667C72.7083 24.25 71.9167 18.125 69.25 16.5M66.3333 40.4167L67.5417 42.5417C68.0127 41.3713 68.4161 40.1749 68.75 38.9583C67.625 38.7083 66.375 38.5 65.0833 38.2917L66.3333 40.4167ZM72.375 11.25C78.5 14.75 79.1667 23.9583 76.5417 34.7083C87.125 37.8333 94.75 43.0417 94.75 50.0417C94.75 57.0417 87.125 62.25 76.5417 65.375C79.125 76.125 78.4583 85.3333 72.375 88.8333C66.2917 92.3333 58 88.3333 50 80.7083C42 88.3333 33.7083 92.3333 27.5833 88.8333C21.4583 85.3333 20.8333 76.3333 23.4167 65.375C12.8333 62.25 5.20834 57.0417 5.20834 50.0417C5.20834 43.0417 12.8333 37.7917 23.4167 34.6667C20.8333 23.9167 21.5 14.7083 27.5833 11.2083C33.6667 7.70832 42 11.7083 50 19.3333C58 11.7083 66.2917 7.70832 72.375 11.2083M71.1667 50C72.6138 53.0673 73.8934 56.2108 75 59.4167C83.75 56.7917 88.6667 53.0417 88.6667 50C88.6667 46.9583 83.625 43.2083 75 40.5833C73.8934 43.7892 72.6138 46.9327 71.1667 50ZM28.8333 50C27.3863 46.9327 26.1066 43.7892 25 40.5833C16.25 43.2083 11.3333 46.9583 11.3333 50C11.3333 53.0417 16.375 56.7917 25 59.4167C26.1066 56.2108 27.3863 53.0673 28.8333 50ZM66.3333 59.4167L65.0833 61.5417C66.375 61.5417 67.625 61.125 68.75 60.875C68.4161 59.6584 68.0127 58.462 67.5417 57.2917L66.3333 59.4167ZM54.1667 76.25C60.7917 82.5 66.6667 84.9166 69.125 83.3333C71.5833 81.75 72.5833 75.75 70.4583 66.6667C67.1541 67.3446 63.816 67.8453 60.4583 68.1667C58.4993 70.9659 56.3994 73.6638 54.1667 76.25ZM33.6667 40.5833L34.9167 38.4583C33.625 38.4583 32.375 38.875 31.25 39.125C31.5839 40.3416 31.9873 41.538 32.4583 42.7083L33.6667 40.5833ZM45.8333 23.75C39.0833 17.5 33.3333 15.0833 30.7083 16.6667C28.0833 18.25 27.2917 24.25 29.4167 33.3333C32.7209 32.6554 36.059 32.1547 39.4167 31.8333C41.4163 29.0312 43.558 26.3332 45.8333 23.75Z" fill="black"/>
</g>
<defs>
<clipPath id="clip0_34_7">
<rect width="100" height="100" fill="white"/>
</clipPath>
</defs>
</svg>
